<svg width="298" height="129" viewBox="0 0 298 129" fill="none" xmlns="http://www.w3.org/2000/svg">
<rect width="298" height="129" rx="46" fill="#F9FAF8"/>
<mask id="path-2-outside-1_0_1" maskUnits="userSpaceOnUse" x="53" y="29" width="190" height="74" fill="black">
<rect fill="white" x="53" y="29" width="190" height="74"/>
<path d="M54.8864 101V31.1818H81.6136C86.6591 31.1818 90.8523 31.9773 94.1932 33.5682C97.5568 35.1364 100.068 37.2841 101.727 40.0114C103.409 42.7386 104.25 45.8295 104.25 49.2841C104.25 52.125 103.705 54.5568 102.614 56.5795C101.523 58.5795 100.057 60.2045 98.2159 61.4545C96.375 62.7045 94.3182 63.6023 92.0455 64.1477V64.8295C94.5227 64.9659 96.8977 65.7273 99.1705 67.1136C101.466 68.4773 103.341 70.4091 104.795 72.9091C106.25 75.4091 106.977 78.4318 106.977 81.9773C106.977 85.5909 106.102 88.8409 104.352 91.7273C102.602 94.5909 99.9659 96.8523 96.4432 98.5114C92.9205 100.17 88.4886 101 83.1477 101H54.8864ZM67.5341 90.4318H81.1364C85.7273 90.4318 89.0341 89.5568 91.0568 87.8068C93.1023 86.0341 94.125 83.7614 94.125 80.9886C94.125 78.9205 93.6136 77.0568 92.5909 75.3977C91.5682 73.7159 90.1136 72.3977 88.2273 71.4432C86.3409 70.4659 84.0909 69.9773 81.4773 69.9773H67.5341V90.4318ZM67.5341 60.875H80.0455C82.2273 60.875 84.1932 60.4773 85.9432 59.6818C87.6932 58.8636 89.0682 57.7159 90.0682 56.2386C91.0909 54.7386 91.6023 52.9659 91.6023 50.9205C91.6023 48.2159 90.6477 45.9886 88.7386 44.2386C86.8523 42.4886 84.0455 41.6136 80.3182 41.6136H67.5341V60.875ZM180.366 66.0909C180.366 73.6136 178.957 80.0568 176.139 85.4205C173.344 90.7614 169.526 94.8523 164.685 97.6932C159.866 100.534 154.401 101.955 148.287 101.955C142.173 101.955 136.696 100.534 131.855 97.6932C127.037 94.8295 123.219 90.7273 120.401 85.3864C117.605 80.0227 116.207 73.5909 116.207 66.0909C116.207 58.5682 117.605 52.1364 120.401 46.7955C123.219 41.4318 127.037 37.3295 131.855 34.4886C136.696 31.6477 142.173 30.2273 148.287 30.2273C154.401 30.2273 159.866 31.6477 164.685 34.4886C169.526 37.3295 173.344 41.4318 176.139 46.7955C178.957 52.1364 180.366 58.5682 180.366 66.0909ZM167.651 66.0909C167.651 60.7955 166.821 56.3295 165.162 52.6932C163.526 49.0341 161.253 46.2727 158.344 44.4091C155.435 42.5227 152.082 41.5795 148.287 41.5795C144.491 41.5795 141.139 42.5227 138.23 44.4091C135.321 46.2727 133.037 49.0341 131.378 52.6932C129.741 56.3295 128.923 60.7955 128.923 66.0909C128.923 71.3864 129.741 75.8636 131.378 79.5227C133.037 83.1591 135.321 85.9205 138.23 87.8068C141.139 89.6705 144.491 90.6023 148.287 90.6023C152.082 90.6023 155.435 89.6705 158.344 87.8068C161.253 85.9205 163.526 83.1591 165.162 79.5227C166.821 75.8636 167.651 71.3864 167.651 66.0909ZM186.162 41.7841V31.1818H241.866V41.7841H220.287V101H207.741V41.7841H186.162Z"/>
</mask>
<path d="M54.8864 101V31.1818H81.6136C86.6591 31.1818 90.8523 31.9773 94.1932 33.5682C97.5568 35.1364 100.068 37.2841 101.727 40.0114C103.409 42.7386 104.25 45.8295 104.25 49.2841C104.25 52.125 103.705 54.5568 102.614 56.5795C101.523 58.5795 100.057 60.2045 98.2159 61.4545C96.375 62.7045 94.3182 63.6023 92.0455 64.1477V64.8295C94.5227 64.9659 96.8977 65.7273 99.1705 67.1136C101.466 68.4773 103.341 70.4091 104.795 72.9091C106.25 75.4091 106.977 78.4318 106.977 81.9773C106.977 85.5909 106.102 88.8409 104.352 91.7273C102.602 94.5909 99.9659 96.8523 96.4432 98.5114C92.9205 100.17 88.4886 101 83.1477 101H54.8864ZM67.5341 90.4318H81.1364C85.7273 90.4318 89.0341 89.5568 91.0568 87.8068C93.1023 86.0341 94.125 83.7614 94.125 80.9886C94.125 78.9205 93.6136 77.0568 92.5909 75.3977C91.5682 73.7159 90.1136 72.3977 88.2273 71.4432C86.3409 70.4659 84.0909 69.9773 81.4773 69.9773H67.5341V90.4318ZM67.5341 60.875H80.0455C82.2273 60.875 84.1932 60.4773 85.9432 59.6818C87.6932 58.8636 89.0682 57.7159 90.0682 56.2386C91.0909 54.7386 91.6023 52.9659 91.6023 50.9205C91.6023 48.2159 90.6477 45.9886 88.7386 44.2386C86.8523 42.4886 84.0455 41.6136 80.3182 41.6136H67.5341V60.875ZM180.366 66.0909C180.366 73.6136 178.957 80.0568 176.139 85.4205C173.344 90.7614 169.526 94.8523 164.685 97.6932C159.866 100.534 154.401 101.955 148.287 101.955C142.173 101.955 136.696 100.534 131.855 97.6932C127.037 94.8295 123.219 90.7273 120.401 85.3864C117.605 80.0227 116.207 73.5909 116.207 66.0909C116.207 58.5682 117.605 52.1364 120.401 46.7955C123.219 41.4318 127.037 37.3295 131.855 34.4886C136.696 31.6477 142.173 30.2273 148.287 30.2273C154.401 30.2273 159.866 31.6477 164.685 34.4886C169.526 37.3295 173.344 41.4318 176.139 46.7955C178.957 52.1364 180.366 58.5682 180.366 66.0909ZM167.651 66.0909C167.651 60.7955 166.821 56.3295 165.162 52.6932C163.526 49.0341 161.253 46.2727 158.344 44.4091C155.435 42.5227 152.082 41.5795 148.287 41.5795C144.491 41.5795 141.139 42.5227 138.23 44.4091C135.321 46.2727 133.037 49.0341 131.378 52.6932C129.741 56.3295 128.923 60.7955 128.923 66.0909C128.923 71.3864 129.741 75.8636 131.378 79.5227C133.037 83.1591 135.321 85.9205 138.23 87.8068C141.139 89.6705 144.491 90.6023 148.287 90.6023C152.082 90.6023 155.435 89.6705 158.344 87.8068C161.253 85.9205 163.526 83.1591 165.162 79.5227C166.821 75.8636 167.651 71.3864 167.651 66.0909ZM186.162 41.7841V31.1818H241.866V41.7841H220.287V101H207.741V41.7841H186.162Z" fill="#A6A9F1"/>
<path d="M54.8864 101H53.8864V102H54.8864V101ZM54.8864 31.1818V30.1818H53.8864V31.1818H54.8864ZM94.1932 33.5682L93.7632 34.4711L93.7706 34.4745L94.1932 33.5682ZM101.727 40.0114L100.873 40.5311L100.876 40.5363L101.727 40.0114ZM102.614 56.5795L103.492 57.0584L103.494 57.0542L102.614 56.5795ZM98.2159 61.4545L97.6542 60.6272L97.6542 60.6272L98.2159 61.4545ZM92.0455 64.1477L91.8121 63.1753L91.0455 63.3593V64.1477H92.0455ZM92.0455 64.8295H91.0455V65.776L91.9905 65.828L92.0455 64.8295ZM99.1705 67.1136L98.6497 67.9674L98.6597 67.9734L99.1705 67.1136ZM104.795 72.9091L103.931 73.412L103.931 73.412L104.795 72.9091ZM104.352 91.7273L105.206 92.2487L105.207 92.2457L104.352 91.7273ZM67.5341 90.4318H66.5341V91.4318H67.5341V90.4318ZM91.0568 87.8068L91.7111 88.5631L91.7117 88.5625L91.0568 87.8068ZM92.5909 75.3977L91.7365 75.9173L91.7397 75.9225L92.5909 75.3977ZM88.2273 71.4432L87.7672 72.3311L87.7758 72.3354L88.2273 71.4432ZM67.5341 69.9773V68.9773H66.5341V69.9773H67.5341ZM67.5341 60.875H66.5341V61.875H67.5341V60.875ZM85.9432 59.6818L86.357 60.5922L86.3667 60.5877L85.9432 59.6818ZM90.0682 56.2386L89.242 55.6753L89.2401 55.6781L90.0682 56.2386ZM88.7386 44.2386L88.0585 44.9718L88.0629 44.9758L88.7386 44.2386ZM67.5341 41.6136V40.6136H66.5341V41.6136H67.5341ZM55.8864 101V31.1818H53.8864V101H55.8864ZM54.8864 32.1818H81.6136V30.1818H54.8864V32.1818ZM81.6136 32.1818C86.5615 32.1818 90.5962 32.9629 93.7633 34.471L94.6231 32.6653C91.1083 30.9916 86.7567 30.1818 81.6136 30.1818V32.1818ZM93.7706 34.4745C96.9851 35.9732 99.3323 37.9985 100.873 40.5311L102.582 39.4916C100.804 36.5696 98.1285 34.2995 94.6157 32.6618L93.7706 34.4745ZM100.876 40.5363C102.453 43.0934 103.25 45.9999 103.25 49.2841H105.25C105.25 45.6592 104.365 42.3839 102.578 39.4865L100.876 40.5363ZM103.25 49.2841C103.25 51.9979 102.729 54.2585 101.733 56.1049L103.494 57.0542C104.68 54.8551 105.25 52.2521 105.25 49.2841H103.25ZM101.736 56.1007C100.719 57.9645 99.3603 59.4688 97.6542 60.6272L98.7777 62.2818C100.753 60.9403 102.326 59.1946 103.492 57.0584L101.736 56.1007ZM97.6542 60.6272C95.918 61.8061 93.9735 62.6566 91.8121 63.1753L92.2788 65.1201C94.6629 64.5479 96.832 63.603 98.7777 62.2818L97.6542 60.6272ZM91.0455 64.1477V64.8295H93.0455V64.1477H91.0455ZM91.9905 65.828C94.291 65.9547 96.5073 66.6605 98.6497 67.9673L99.6912 66.2599C97.2881 64.7941 94.7545 63.9771 92.1004 63.8311L91.9905 65.828ZM98.6597 67.9734C100.797 69.2429 102.555 71.0465 103.931 73.412L105.66 72.4062C104.127 69.7717 102.135 67.7116 99.6812 66.2539L98.6597 67.9734ZM103.931 73.412C105.279 75.7283 105.977 78.5688 105.977 81.9773H107.977C107.977 78.2948 107.221 75.0899 105.66 72.4062L103.931 73.412ZM105.977 81.9773C105.977 85.4215 105.146 88.4899 103.497 91.2088L105.207 92.2457C107.059 89.192 107.977 85.7603 107.977 81.9773H105.977ZM103.499 91.2058C101.866 93.8773 99.3921 96.0172 96.0171 97.6067L96.8693 99.416C100.54 97.6874 103.338 95.3045 105.206 92.2487L103.499 91.2058ZM96.0171 97.6067C92.6676 99.1842 88.3929 100 83.1477 100V102C88.5843 102 93.1734 101.157 96.8693 99.416L96.0171 97.6067ZM83.1477 100H54.8864V102H83.1477V100ZM67.5341 91.4318H81.1364V89.4318H67.5341V91.4318ZM81.1364 91.4318C85.8101 91.4318 89.4153 90.5493 91.7111 88.5631L90.4025 87.0506C88.6529 88.5643 85.6444 89.4318 81.1364 89.4318V91.4318ZM91.7117 88.5625C93.9824 86.5946 95.125 84.0433 95.125 80.9886H93.125C93.125 83.4795 92.2221 85.4736 90.4019 87.0511L91.7117 88.5625ZM95.125 80.9886C95.125 78.747 94.5682 76.6996 93.4422 74.873L91.7397 75.9225C92.6591 77.414 93.125 79.0939 93.125 80.9886H95.125ZM93.4453 74.8781C92.3185 73.0251 90.7188 71.5832 88.6788 70.5509L87.7758 72.3354C89.5085 73.2123 90.8179 74.4067 91.7365 75.9173L93.4453 74.8781ZM88.6873 70.5553C86.6297 69.4893 84.2147 68.9773 81.4773 68.9773V70.9773C83.9671 70.9773 86.0521 71.4425 87.7673 72.3311L88.6873 70.5553ZM81.4773 68.9773H67.5341V70.9773H81.4773V68.9773ZM66.5341 69.9773V90.4318H68.5341V69.9773H66.5341ZM67.5341 61.875H80.0455V59.875H67.5341V61.875ZM80.0455 61.875C82.3508 61.875 84.4606 61.4542 86.357 60.5922L85.5294 58.7714C83.9258 59.5003 82.1038 59.875 80.0455 59.875V61.875ZM86.3667 60.5877C88.2662 59.6996 89.7867 58.4383 90.8963 56.7992L89.2401 55.6781C88.3496 56.9935 87.1201 58.0277 85.5197 58.7759L86.3667 60.5877ZM90.8944 56.802C92.0444 55.1154 92.6023 53.1405 92.6023 50.9205H90.6023C90.6023 52.7913 90.1375 54.3619 89.242 55.6753L90.8944 56.802ZM92.6023 50.9205C92.6023 47.9496 91.5402 45.4502 89.4144 43.5015L88.0629 44.9758C89.7552 46.5271 90.6023 48.4822 90.6023 50.9205H92.6023ZM89.4188 43.5055C87.2791 41.5205 84.1856 40.6136 80.3182 40.6136V42.6136C83.9053 42.6136 86.4255 43.4568 88.0585 44.9717L89.4188 43.5055ZM80.3182 40.6136H67.5341V42.6136H80.3182V40.6136ZM66.5341 41.6136V60.875H68.5341V41.6136H66.5341ZM176.139 85.4205L175.254 84.9553L175.253 84.9567L176.139 85.4205ZM164.685 97.6932L164.179 96.8307L164.177 96.8318L164.685 97.6932ZM131.855 97.6932L131.344 98.5528L131.349 98.5556L131.855 97.6932ZM120.401 85.3864L119.514 85.8486L119.516 85.853L120.401 85.3864ZM120.401 46.7955L119.515 46.3303L119.515 46.3317L120.401 46.7955ZM131.855 34.4886L131.349 33.6262L131.347 33.6272L131.855 34.4886ZM164.685 34.4886L164.177 35.35L164.179 35.3511L164.685 34.4886ZM176.139 46.7955L175.252 47.2576L175.255 47.2621L176.139 46.7955ZM165.162 52.6932L164.249 53.1014L164.252 53.1083L165.162 52.6932ZM158.344 44.4091L157.8 45.2481L157.804 45.2511L158.344 44.4091ZM138.23 44.4091L138.77 45.2511L138.774 45.2481L138.23 44.4091ZM131.378 52.6932L130.467 52.2802L130.466 52.2828L131.378 52.6932ZM131.378 79.5227L130.465 79.931L130.468 79.9378L131.378 79.5227ZM138.23 87.8068L137.686 88.6459L137.691 88.6488L138.23 87.8068ZM158.344 87.8068L158.883 88.6489L158.888 88.6459L158.344 87.8068ZM165.162 79.5227L164.251 79.1098L164.25 79.1124L165.162 79.5227ZM179.366 66.0909C179.366 73.4901 177.981 79.7657 175.254 84.9553L177.024 85.8856C179.934 80.3479 181.366 73.7372 181.366 66.0909H179.366ZM175.253 84.9567C172.538 90.1446 168.846 94.0916 164.179 96.8307L165.191 98.5556C170.205 95.6129 174.15 91.3781 177.025 85.8842L175.253 84.9567ZM164.177 96.8318C159.527 99.5736 154.239 100.955 148.287 100.955V102.955C154.562 102.955 160.206 101.495 165.193 98.5546L164.177 96.8318ZM148.287 100.955C142.335 100.955 137.035 99.5736 132.361 96.8307L131.349 98.5556C136.357 101.495 142.012 102.955 148.287 102.955V100.955ZM132.366 96.8335C127.718 94.0713 124.024 90.1108 121.285 84.9197L119.516 85.853C122.413 91.3437 126.355 95.5878 131.344 98.5528L132.366 96.8335ZM121.287 84.9242C118.582 79.7335 117.207 73.4679 117.207 66.0909H115.207C115.207 73.7139 116.628 80.312 119.514 85.8485L121.287 84.9242ZM117.207 66.0909C117.207 58.6904 118.582 52.4258 121.287 47.2592L119.515 46.3317C116.628 51.8469 115.207 58.4459 115.207 66.0909H117.207ZM121.286 47.2606C124.025 42.0473 127.718 38.0887 132.363 35.35L131.347 33.6272C126.356 36.5704 122.413 40.8163 119.515 46.3303L121.286 47.2606ZM132.361 35.3511C137.035 32.6082 142.335 31.2273 148.287 31.2273V29.2273C142.012 29.2273 136.357 30.6873 131.349 33.6262L132.361 35.3511ZM148.287 31.2273C154.239 31.2273 159.527 32.6082 164.177 35.35L165.193 33.6272C160.206 30.6873 154.562 29.2273 148.287 29.2273V31.2273ZM164.179 35.3511C168.845 38.0896 172.537 42.0471 175.252 47.2576L177.026 46.3333C174.151 40.8166 170.206 36.5695 165.191 33.6262L164.179 35.3511ZM175.255 47.2621C177.981 52.4281 179.366 58.6916 179.366 66.0909H181.366C181.366 58.4448 179.934 51.8446 177.024 46.3288L175.255 47.2621ZM168.651 66.0909C168.651 60.6965 167.806 56.0798 166.072 52.2781L164.252 53.1083C165.836 56.5793 166.651 60.8944 166.651 66.0909H168.651ZM166.075 52.2849C164.372 48.4771 161.981 45.5518 158.883 43.5671L157.804 45.2511C160.524 46.9936 162.679 49.5911 164.249 53.1014L166.075 52.2849ZM158.888 43.57C155.801 41.5687 152.256 40.5795 148.287 40.5795V42.5795C151.908 42.5795 155.068 43.4767 157.8 45.2481L158.888 43.57ZM148.287 40.5795C144.317 40.5795 140.772 41.5687 137.686 43.57L138.774 45.2481C141.506 43.4767 144.666 42.5795 148.287 42.5795V40.5795ZM137.691 43.5671C134.594 45.5509 132.193 48.4745 130.467 52.2802L132.289 53.1061C133.881 49.5936 136.048 46.9945 138.77 45.2511L137.691 43.5671ZM130.466 52.2828C128.756 56.0831 127.923 60.6981 127.923 66.0909H129.923C129.923 60.8928 130.727 56.576 132.29 53.1035L130.466 52.2828ZM127.923 66.0909C127.923 71.484 128.756 76.1093 130.465 79.931L132.291 79.1145C130.727 75.618 129.923 71.2887 129.923 66.0909H127.923ZM130.468 79.9378C132.194 83.7204 134.594 86.6408 137.686 88.6459L138.774 86.9678C136.048 85.2001 133.88 82.5978 132.288 79.1076L130.468 79.9378ZM137.691 88.6488C140.777 90.6257 144.32 91.6023 148.287 91.6023V89.6023C144.663 89.6023 141.502 88.7152 138.77 86.9648L137.691 88.6488ZM148.287 91.6023C152.254 91.6023 155.797 90.6257 158.883 88.6488L157.804 86.9648C155.072 88.7152 151.911 89.6023 148.287 89.6023V91.6023ZM158.888 88.6459C161.981 86.6399 164.371 83.7178 166.074 79.9331L164.25 79.1124C162.68 82.6004 160.524 85.201 157.8 86.9678L158.888 88.6459ZM166.073 79.9357C167.806 76.1126 168.651 71.4856 168.651 66.0909H166.651C166.651 71.2871 165.836 75.6147 164.251 79.1098L166.073 79.9357ZM186.162 41.7841H185.162V42.7841H186.162V41.7841ZM186.162 31.1818V30.1818H185.162V31.1818H186.162ZM241.866 31.1818H242.866V30.1818H241.866V31.1818ZM241.866 41.7841V42.7841H242.866V41.7841H241.866ZM220.287 41.7841V40.7841H219.287V41.7841H220.287ZM220.287 101V102H221.287V101H220.287ZM207.741 101H206.741V102H207.741V101ZM207.741 41.7841H208.741V40.7841H207.741V41.7841ZM187.162 41.7841V31.1818H185.162V41.7841H187.162ZM186.162 32.1818H241.866V30.1818H186.162V32.1818ZM240.866 31.1818V41.7841H242.866V31.1818H240.866ZM241.866 40.7841H220.287V42.7841H241.866V40.7841ZM219.287 41.7841V101H221.287V41.7841H219.287ZM220.287 100H207.741V102H220.287V100ZM208.741 101V41.7841H206.741V101H208.741ZM207.741 40.7841H186.162V42.7841H207.741V40.7841Z" fill="black" mask="url(#path-2-outside-1_0_1)"/>
</svg>
